# xmcd
#
# Track frame offsets:
#	150
#	38844
#	81957
#	92578
#	109590
#	147683
#	177778
#	217604
#	237837
#
# Disc length: 3515 seconds
#
# Revision: 1
# Processed by: cddbd v1.5.2PL0 Copyright (c) Steve Scherf et al.
# Submitted via: audiograbber 1.83.01
#
DISCID=6e0db909
DTITLE=Grateful Dead - 77-12-31 Winterland Arena, San Francisco CA
DYEAR=1900
DGENRE=
TTITLE0=The Music Never Stopped
TTITLE1=Tennessee Jed
TTITLE2=Funiculi Funicula
TTITLE3=Me and My Uncle
TTITLE4=Loser
TTITLE5=Jack Straw
TTITLE6=Friend Of The Devil
TTITLE7=Lazy Lightning
TTITLE8=Supplication
EXTD=
EXTT0=
EXTT1=
EXTT2=
EXTT3=
EXTT4=
EXTT5=
EXTT6=
EXTT7=
EXTT8=
PLAYORDER=
